<svg height="490pt" viewBox="0 -58 490 490" width="490pt" xmlns="http://www.w3.org/2000/svg"><path d="m479.5 30.398438v298.300781c.003906 11.046875-8.953125 20.003906-20 20h-143.5c-6.148438-.019531-12.285156.617187-18.300781 1.902343-6.007813 1.222657-11.871094 3.066407-17.5 5.5-11.308594 4.867188-23.488281 7.386719-35.800781 7.398438v-338.300781c12.3125-.019531 24.492187-2.539063 35.800781-7.398438 11.300781-4.890625 23.488281-7.410156 35.800781-7.402343h143.5c11.046875 0 20.003906 8.953124 20 20zm-57.199219 109.101562c0-11.707031-9.492187-21.199219-21.199219-21.199219-11.710937 0-21.203124 9.492188-21.203124 21.199219s9.492187 21.199219 21.203124 21.199219c11.703126-.003907 21.191407-9.492188 21.199219-21.199219zm0 95c0-11.707031-9.492187-21.199219-21.199219-21.199219-11.710937 0-21.203124 9.492188-21.203124 21.199219s9.492187 21.199219 21.203124 21.199219c11.703126-.003907 21.191407-9.492188 21.199219-21.199219zm-93.300781-47.5c0-11.707031-9.492188-21.199219-21.199219-21.199219-11.710937 0-21.199219 9.492188-21.199219 21.199219s9.488282 21.199219 21.199219 21.199219c11.707031-.003907 21.191407-9.492188 21.199219-21.199219zm0 0" fill="#00acea"/><path d="m401.101562 118.300781c11.707032 0 21.199219 9.492188 21.199219 21.199219s-9.492187 21.199219-21.199219 21.199219c-11.710937 0-21.203124-9.492188-21.203124-21.199219.007812-11.707031 9.496093-21.195312 21.203124-21.199219zm0 0" fill="#fedb41"/><path d="m401.101562 213.300781c11.707032 0 21.199219 9.492188 21.199219 21.199219s-9.492187 21.199219-21.199219 21.199219c-11.710937 0-21.203124-9.492188-21.203124-21.199219.007812-11.707031 9.496093-21.195312 21.203124-21.199219zm0 0" fill="#fedb41"/><path d="m307.800781 165.800781c11.707031 0 21.199219 9.492188 21.199219 21.199219s-9.492188 21.199219-21.199219 21.199219c-11.710937 0-21.199219-9.492188-21.199219-21.199219.003907-11.707031 9.492188-21.195312 21.199219-21.199219zm0 0" fill="#fedb41"/><path d="m244.5 25.300781v338.300781c-12.3125-.023437-24.488281-2.542968-35.800781-7.402343-11.300781-4.886719-23.484375-7.40625-35.800781-7.398438h-142.398438c-11.046875.003907-20.003906-8.953125-20-20v-298.402343c.03125-11.03125 8.96875-19.964844 20-20h142.5c6.148438-.015626 12.285156.621093 18.300781 1.902343 6.007813 1.222657 11.871094 3.066407 17.5 5.5 11.265625 4.898438 23.414063 7.453125 35.699219 7.5zm0 0" fill="#00efd1"/><g fill="#083863"><path d="m459.5 0h-143.5c-13.667969.0742188-27.175781 2.933594-39.699219 8.398438-10.023437 4.40625-20.851562 6.691406-31.800781 6.703124-10.929688.007813-21.75-2.207031-31.800781-6.5-6.226563-2.773437-12.730469-4.882812-19.398438-6.300781-6.671875-1.460937-13.472656-2.2343748-20.300781-2.300781h-142.5c-16.738281.160156-30.285156 13.664062-30.5 30.398438v298.300781c0 16.5 13.898438 30.199219 30.5 30.199219h142.5c10.933594-.054688 21.765625 2.15625 31.800781 6.5 12.523438 5.453124 26.042969 8.242187 39.699219 8.203124 13.652344-.007812 27.160156-2.796874 39.699219-8.203124 5.015625-2.152344 10.242187-3.761719 15.601562-4.796876 5.332031-1.082031 10.757813-1.621093 16.199219-1.601562h143.5c16.5 0 30.5-13.699219 30.5-30.199219v-298.402343c-.214844-16.734376-13.761719-30.238282-30.5-30.398438zm-286.5 339h-142.5c-5.5 0-10.5-4.699219-10.5-10.199219v-298.402343c.183594-5.703126 4.792969-10.269532 10.5-10.398438h142.5c5.449219.082031 10.878906.71875 16.199219 1.898438 5.25 1.167968 10.375 2.84375 15.300781 5 9.375 4.097656 19.324219 6.726562 29.5 7.800781v318.199219c-7.398438-.945313-14.632812-2.894532-21.5-5.796876-12.476562-5.363281-25.917969-8.121093-39.5-8.101562zm297-10.199219c-.199219 5.664063-4.832031 10.164063-10.5 10.199219h-143.5c-6.816406-.035156-13.621094.636719-20.300781 2-6.746094 1.394531-13.34375 3.4375-19.699219 6.101562-7.011719 3.011719-14.421875 5-22 5.898438v-318.300781c10.363281-.992188 20.492188-3.660157 30-7.898438 10.085938-4.441406 20.980469-6.753906 32-6.800781h143.5c5.691406.164062 10.28125 4.710938 10.5 10.398438zm0 0"/><path d="m67 96h45.199219c5.523437 0 10-4.476562 10-10s-4.476563-10-10-10h-45.199219c-5.523438 0-10 4.476562-10 10s4.476562 10 10 10zm0 0"/><path d="m182.199219 138h-115.199219c-5.523438 0-10 4.476562-10 10s4.476562 10 10 10h115.199219c5.523437 0 10-4.476562 10-10s-4.476563-10-10-10zm0 0"/><path d="m182.199219 201h-115.199219c-5.523438 0-10 4.476562-10 10s4.476562 10 10 10h115.199219c5.523437 0 10-4.476562 10-10s-4.476563-10-10-10zm0 0"/><path d="m182.199219 264h-115.199219c-5.523438 0-10 4.476562-10 10s4.476562 10 10 10h115.199219c5.523437 0 10-4.476562 10-10s-4.476563-10-10-10zm0 0"/><path d="m401.101562 170.699219c17.230469 0 31.199219-13.96875 31.199219-31.199219s-13.96875-31.199219-31.199219-31.199219c-17.234374 0-31.203124 13.96875-31.203124 31.199219.015624 1.945312.183593 3.882812.5 5.800781l-40.699219 19.5c-5.816407-5.789062-13.695313-9.027343-21.898438-9-13.75-.007812-25.882812 8.984375-29.871093 22.140625-3.992188 13.15625 1.097656 27.375 12.53125 35.007813 11.4375 7.632812 26.519531 6.882812 37.140624-1.847657l42.5 19.5c-.203124 1.320313-.304687 2.660157-.300781 4 0 17.230469 13.96875 31.199219 31.199219 31.199219s31.199219-13.96875 31.199219-31.199219c0-17.234374-13.96875-31.203124-31.199219-31.203124-8.351562-.027344-16.363281 3.328124-22.199219 9.300781l-40.699219-18.699219c.523438-2.261719.789063-4.578125.796876-6.898438.003906-1.441406-.09375-2.878906-.296876-4.300781l41.597657-20c5.773437 5.085938 13.207031 7.894531 20.902343 7.898438zm0 52.601562c6.183594 0 11.199219 5.011719 11.199219 11.199219s-5.015625 11.199219-11.199219 11.199219c-6.1875 0-11.203124-5.011719-11.203124-11.199219-.003907-2.972656 1.175781-5.824219 3.277343-7.925781 2.101563-2.101563 4.953125-3.277344 7.925781-3.273438zm0-95c6.183594 0 11.199219 5.011719 11.199219 11.199219s-5.015625 11.199219-11.199219 11.199219c-6.1875 0-11.203124-5.011719-11.203124-11.199219-.003907-2.972656 1.175781-5.824219 3.277343-7.925781 2.101563-2.101563 4.953125-3.277344 7.925781-3.273438zm-93.300781 69.898438c-6.1875 0-11.199219-5.011719-11.199219-11.199219s5.011719-11.199219 11.199219-11.199219c6.183594 0 11.199219 5.011719 11.199219 11.199219.003906 2.972656-1.171875 5.824219-3.273438 7.925781-2.101562 2.101563-4.953124 3.277344-7.925781 3.273438zm0 0"/></g></svg>